<?xml version="1.0" encoding="utf-8"?>
<!-- Generator: Adobe Illustrator 25.3.1, SVG Export Plug-In . SVG Version: 6.00 Build 0)  -->
<svg version="1.1" id="Layer_1" xmlns="http://www.w3.org/2000/svg" xmlns:xlink="http://www.w3.org/1999/xlink" x="0px" y="0px"
	 viewBox="0 0 82.11 75.44" style="enable-background:new 0 0 82.11 75.44;" xml:space="preserve">
<style type="text/css">
	.st0{fill:#FA6450;}
	.st1{fill:#E85749;}
	.st2{fill:#FFFFFF;}
</style>
<g>
	<circle class="st0" cx="41.37" cy="37.99" r="33.78"/>
	<path class="st1" d="M75.15,37.99c0,18.58-15.2,33.78-33.78,33.78c-10.77,0-20.27-4.86-26.39-12.67c5.7,4.64,13.09,7.39,21.11,7.39
		c18.58,0,33.78-15.2,33.78-33.78c0-8.02-2.74-15.41-7.39-21.11C70.29,17.72,75.15,27.22,75.15,37.99z"/>
	<path class="st2" d="M56.78,53.4c-1.27,1.27-3.38,1.27-4.64,0L41.37,42.63L30.6,53.4c-1.27,1.27-3.38,1.27-4.64,0
		c-1.27-1.27-1.27-3.38,0-4.64l10.77-10.77L25.96,27.22c-1.27-1.27-1.27-3.38,0-4.64c1.27-1.27,3.38-1.27,4.64,0l10.77,10.77
		l10.77-10.77c1.27-1.27,3.38-1.27,4.64,0c1.27,1.27,1.27,3.38,0,4.64L46.01,37.99l10.77,10.77C58.05,50.02,58.05,52.13,56.78,53.4z
		"/>
</g>
</svg>
