<svg id="_x31_-outline-expand" enable-background="new 0 0 64 64" height="512" viewBox="0 0 64 64" width="512" xmlns="http://www.w3.org/2000/svg"><path d="m1 11h62v42h-62z" fill="#aa494a"/><g fill="#efbc2e"><path d="m12 21.686 2.163 4.383 4.837.703-3.5 3.411.826 4.817-4.326-2.274-4.326 2.274.826-4.817-3.5-3.411 4.837-.703z"/><path d="m23 14.884.831 1.684 1.859.27-1.345 1.311.318 1.851-1.663-.874-1.663.874.318-1.851-1.345-1.311 1.859-.27z"/><path d="m23 38 .831 1.685 1.859.269-1.345 1.312.318 1.85-1.663-.874-1.663.874.318-1.85-1.345-1.312 1.859-.269z"/><path d="m27.69 22 .832 1.685 1.858.269-1.345 1.312.318 1.85-1.663-.874-1.663.874.318-1.85-1.345-1.312 1.859-.269z"/><path d="m27.69 30.116.832 1.685 1.858.27-1.345 1.311.318 1.851-1.663-.874-1.663.874.318-1.851-1.345-1.311 1.859-.27z"/></g></svg>