<?xml version="1.0" encoding="utf-8"?>
<!-- Generator: Adobe Illustrator 25.3.1, SVG Export Plug-In . SVG Version: 6.00 Build 0)  -->
<svg version="1.1" id="Layer_1" xmlns="http://www.w3.org/2000/svg" xmlns:xlink="http://www.w3.org/1999/xlink" x="0px" y="0px"
	 viewBox="0 0 82.11 75.44" style="enable-background:new 0 0 82.11 75.44;" xml:space="preserve">
<style type="text/css">
	.st0{fill:#375E7D;}
	.st1{fill:#2C4E66;}
	.st2{fill:#F27D86;}
	.st3{fill:#FBCDBE;}
	.st4{fill:#F8AE9F;}
	.st5{fill:#FCDDCE;}
	.st6{fill:#FFCF66;}
	.st7{fill:#FDC151;}
	.st8{fill:#B5D99D;}
	.st9{fill:#96CFA2;}
</style>
<g>
	<path class="st0" d="M34.19,22.83h-2.71l-0.17,0.18v1.59c0,1.42-0.84,2.23-2.11,2.89c-1.74,0.9-2.26,5.98,1.01,7.64l0.93,0.14
		l6.5-2.52v-3.68L34.19,22.83z"/>
	<path class="st1" d="M33.7,27.49c0.97-0.5,1.68-1.09,1.97-1.97l-1.49-2.69h-2.71l-0.17,0.18v1.59c0,1.42-0.84,2.23-2.11,2.89
		c-1.74,0.9-2.26,5.98,1.01,7.64l0.93,0.14l2.47-0.96C31.61,32.2,32.2,28.27,33.7,27.49z"/>
	<path class="st0" d="M53.52,27.49c-1.27-0.65-2.11-1.47-2.11-2.89v-1.62l-0.27-0.25h-2.84l-3.26,6.59v3.33l6.71,2.61l0.62-0.19
		C55.59,33.38,55.24,28.38,53.52,27.49L53.52,27.49z"/>
	<path class="st2" d="M56.3,36.6c-0.35-0.13-5.03-1.95-7.98-3.09l-0.71,0.32H35.28l-0.88-0.31c-2.94,1.14-7.88,3.06-7.97,3.09
		c-1.71,0.71-4.01,2.93-4.01,6.22v11.21h37.88c0-3.6,0-10.64,0-11.21C60.31,39.98,58.49,37.5,56.3,36.6L56.3,36.6z"/>
	<path class="st3" d="M51.4,18.34l-0.22-0.23h-2.67v4.68l0.15,0.3h2.02c1.35,0,2.44-1.09,2.44-2.44
		C53.11,19.57,52.39,18.65,51.4,18.34L51.4,18.34z"/>
	<path class="st3" d="M31.31,18.32L31.31,18.32c-1.03,0.29-1.78,1.23-1.78,2.35c0,1.35,1.09,2.44,2.44,2.44h2.11l0.23-0.27V18.1
		h-2.82L31.31,18.32z"/>
	<path class="st4" d="M50.9,18.11h-2.39v4.68l0.15,0.3h2.02c0.08,0,0.15,0,0.22-0.01L50.9,18.11L50.9,18.11z"/>
	<path class="st4" d="M31.92,20.67c0-1.12,0.75-2.06,1.78-2.35l0,0l0.17-0.22h-2.39l-0.17,0.22l0,0c-1.03,0.29-1.78,1.23-1.78,2.35
		c0,1.35,1.09,2.44,2.44,2.44h2.11l0.01-0.02C32.87,22.95,31.92,21.92,31.92,20.67L31.92,20.67z"/>
	<path class="st3" d="M45.94,32.58c-0.28-0.11-0.47-0.38-0.47-0.69l0-2.48l-0.33-0.34h-7.5l-0.38,0.36v2.46
		c0,0.57-0.51,0.7-0.72,0.79c-0.05,0.02-0.92,0.36-2.14,0.83c0.87,2.82,3.47,5.05,7.04,5.06c3.21,0.01,5.94-2.14,6.87-5.07
		C47.04,33.01,46.09,32.64,45.94,32.58L45.94,32.58z"/>
	<path class="st4" d="M41.37,29.07h-3.72l-0.38,0.36v2.46c0,0.57-0.51,0.7-0.72,0.79c-0.05,0.02-0.92,0.36-2.14,0.83
		c0.87,2.8,3.43,5.02,6.97,5.06L41.37,29.07z"/>
	<path class="st5" d="M47.91,17.61h-3.2l-2.52-3.13h-1.5l-2.33,2.53v6.44c0,3.04,1.87,5.88,4.9,6.96c3.1-0.82,5.4-3.68,5.4-7.03
		v-5.17L47.91,17.61z"/>
	<path class="st3" d="M38.53,23.47v-6.64l-0.89,0.96H34.4l-0.32,0.44v5.24c0,3.75,2.93,7.17,7.37,7.19c0.76,0,1.49-0.12,2.17-0.34
		C40.48,29.37,38.53,26.52,38.53,23.47L38.53,23.47z"/>
	<path class="st0" d="M41.23,5.09c-5.52,0.07-9.92,4.68-9.92,10.2v3.03c0.21-0.06,0.43-0.09,0.66-0.09h2.11h1.91
		c0.25,0,1.65-0.11,1.54-0.11c1.77-0.14,3.3-1.47,3.72-3.21c0.01-0.06,0.06-0.1,0.12-0.1c0.06,0,0.11,0.04,0.12,0.1
		c0.42,1.73,1.94,3.05,3.68,3.2c1.27,0.11,1.28,0.11,1.51,0.11h1.98h2.02c0.26,0,0.51,0.04,0.74,0.12v-3.2
		C51.42,9.55,46.85,5.02,41.23,5.09z"/>
	<g>
		<path class="st1" d="M35.81,15.29c0-4.8,3.32-8.9,7.81-9.94c-0.77-0.18-1.57-0.27-2.39-0.26c-5.52,0.07-9.92,4.68-9.92,10.2v3.03
			c0.21-0.06,0.43-0.09,0.66-0.09h2.11h1.74V15.29z"/>
	</g>
	<path class="st0" d="M53.14,42.31h-2.71l-0.17,0.18v1.59c0,1.42-0.84,2.23-2.11,2.89c-1.74,0.9-2.26,5.98,1.01,7.64l0.93,0.14
		l6.5-2.52v-3.68L53.14,42.31z"/>
	<path class="st1" d="M52.66,46.97c0.97-0.5,1.68-1.09,1.97-1.97l-1.49-2.69h-2.71l-0.17,0.18v1.59c0,1.42-0.84,2.23-2.11,2.89
		c-1.74,0.9-2.26,5.98,1.01,7.64l0.93,0.14l2.47-0.96C50.56,51.69,51.15,47.75,52.66,46.97L52.66,46.97z"/>
	<path class="st0" d="M72.48,46.97c-1.27-0.65-2.11-1.47-2.11-2.89v-1.62l-0.27-0.25h-2.84l-3.26,6.59v3.33l6.71,2.61l0.62-0.19
		C74.54,52.86,74.2,47.86,72.48,46.97L72.48,46.97z"/>
	<path class="st6" d="M75.25,56.08c-0.35-0.13-5.03-1.95-7.98-3.09l-0.71,0.32H54.23l-0.88-0.31c-2.94,1.14-7.88,3.06-7.97,3.09
		c-1.71,0.71-4.01,2.93-4.01,6.22v8.66H72.4v-4.77h6.86c0-3.6,0-3.33,0-3.89C79.26,59.46,77.45,56.98,75.25,56.08L75.25,56.08z"/>
	<path class="st3" d="M70.36,37.82l-0.22-0.23h-2.67v4.68l0.15,0.3h2.02c1.35,0,2.44-1.09,2.44-2.44
		C72.07,39.05,71.35,38.13,70.36,37.82L70.36,37.82z"/>
	<path class="st3" d="M50.27,37.8L50.27,37.8c-1.03,0.29-1.78,1.23-1.78,2.35c0,1.35,1.09,2.44,2.44,2.44h2.11l0.23-0.27v-4.73
		h-2.82L50.27,37.8z"/>
	<path class="st4" d="M69.85,37.6h-2.39v4.68l0.15,0.3h2.02c0.08,0,0.15,0,0.22-0.01L69.85,37.6L69.85,37.6z"/>
	<path class="st4" d="M50.88,40.15c0-1.12,0.75-2.06,1.78-2.35l0,0l0.17-0.22h-2.39l-0.17,0.22l0,0c-1.03,0.29-1.78,1.23-1.78,2.35
		c0,1.35,1.09,2.44,2.44,2.44h2.11l0.01-0.02C51.82,42.43,50.88,41.4,50.88,40.15L50.88,40.15z"/>
	<path class="st3" d="M72.4,66.04v4.92h5.53c0.74,0,1.34-0.6,1.34-1.34c0-0.63,0,1.13,0-3.59H72.4z"/>
	<path class="st3" d="M64.89,52.06c-0.28-0.11-0.47-0.38-0.47-0.69l0-2.48l-0.33-0.34h-7.5l-0.38,0.36v2.46
		c0,0.57-0.51,0.7-0.72,0.79c-0.05,0.02-0.92,0.36-2.14,0.83c0.87,2.82,3.47,5.05,7.04,5.06c3.21,0.01,5.94-2.14,6.87-5.07
		C66,52.49,65.04,52.12,64.89,52.06L64.89,52.06z"/>
	<path class="st4" d="M60.32,48.55H56.6l-0.38,0.36v2.46c0,0.57-0.51,0.7-0.72,0.79c-0.05,0.02-0.92,0.36-2.14,0.83
		c0.87,2.8,3.43,5.02,6.97,5.06V48.55z"/>
	<path class="st7" d="M73.54,70.96v-7.96c0-0.63-0.51-1.14-1.14-1.14s-1.14,0.51-1.14,1.14v7.96H73.54z"/>
	<path class="st5" d="M66.86,37.09h-3.2l-2.52-3.13h-1.5l-2.33,2.53v6.44c0,3.04,1.87,5.88,4.9,6.96c3.1-0.82,5.4-3.68,5.4-7.03
		v-5.17L66.86,37.09z"/>
	<path class="st3" d="M57.49,42.95v-6.64l-0.89,0.96h-3.24l-0.32,0.44v5.24c0,3.75,2.93,7.17,7.37,7.19c0.76,0,1.49-0.12,2.17-0.34
		C59.44,48.85,57.49,46,57.49,42.95L57.49,42.95z"/>
	<path class="st0" d="M60.19,24.57c-5.52,0.07-9.92,4.68-9.92,10.2v3.03c0.21-0.06,0.43-0.09,0.66-0.09h2.11h1.91
		c0.25,0,1.65-0.11,1.54-0.11c1.77-0.14,3.3-1.47,3.72-3.21c0.01-0.06,0.06-0.1,0.12-0.1c0.06,0,0.11,0.04,0.12,0.1
		c0.42,1.73,1.94,3.05,3.68,3.2c1.27,0.11,1.28,0.11,1.51,0.11h1.98h2.02c0.26,0,0.51,0.04,0.74,0.12v-3.2
		C70.37,29.03,65.8,24.5,60.19,24.57z"/>
	<g>
		<path class="st1" d="M54.77,34.77c0-4.8,3.32-8.9,7.81-9.94c-0.77-0.18-1.57-0.27-2.39-0.26c-5.52,0.07-9.92,4.68-9.92,10.2v3.03
			c0.21-0.06,0.43-0.09,0.66-0.09h2.11h1.74L54.77,34.77z"/>
	</g>
	<path class="st3" d="M31.77,37.32h-0.58l-0.26-0.25h-1.54v5.15l0.45,0.24h1.93c1.35,0,2.44-1.15,2.44-2.57
		C34.21,38.47,33.12,37.32,31.77,37.32z"/>
	<path class="st3" d="M13.06,37.32c-1.34,0-2.43,1.15-2.43,2.57c0,1.42,1.09,2.57,2.44,2.57H15l0.31-0.58v-4.8h-1.8L13.06,37.32z"/>
	<path class="st4" d="M31.93,37.33c-0.05,0-0.11-0.01-0.16-0.01h-0.58l-0.26-0.25h-1.54v5.15l0.45,0.24h1.93
		c0.05,0,0.11,0,0.16-0.01V37.33z"/>
	<path class="st4" d="M13.17,39.88c0-1.31,0.94-2.39,2.14-2.55v-0.27h-1.8l-0.45,0.25c-1.34,0-2.43,1.15-2.43,2.57
		c0,1.42,1.09,2.57,2.44,2.57H15l0.04-0.07C13.97,42.11,13.17,41.09,13.17,39.88L13.17,39.88z"/>
	<path class="st8" d="M37.35,56.08c-0.34-0.13-4.92-1.91-7.88-3.05l-0.61,0.29H15.91L15.36,53l-7.88,3.08
		C5.77,56.78,3.48,59,3.48,62.3v3.49h6.86v5.18h31.02c0-3.6,0-8.1,0-8.66C41.36,59.46,39.54,56.98,37.35,56.08L37.35,56.08z"/>
	<path class="st9" d="M9.35,59.6c0-2.32,0.55-3.93,1.85-4.98l-3.71,1.45C5.77,56.78,3.48,59,3.48,62.3v3.49h5.87
		C9.35,61.59,9.35,61.51,9.35,59.6L9.35,59.6z"/>
	<path class="st4" d="M10.34,65.63H3.48v3.99c0,0.74,0.6,1.34,1.34,1.34h5.53L10.34,65.63L10.34,65.63z"/>
	<path class="st3" d="M26.99,52.06c-0.28-0.11-0.47-0.38-0.47-0.69l0-2.44l-0.5-0.51h-7.24l-0.46,0.5v2.44
		c0,0.31-0.15,0.49-0.32,0.6L15.36,53c0.92,2.83,3.55,5.05,7.16,5.05c3.23,0,5.98-2.11,6.94-5.02
		C28.14,52.51,27.14,52.12,26.99,52.06L26.99,52.06z"/>
	<path class="st4" d="M22.42,48.42h-3.64l-0.46,0.5v2.44c0,0.31-0.15,0.49-0.32,0.6L15.36,53c0.91,2.8,3.5,5,7.05,5.04V48.42z"/>
	<path class="st9" d="M11.48,70.96v-7.96c0-0.63-0.51-1.14-1.14-1.14c-0.63,0-1.14,0.51-1.14,1.14v7.96H11.48z"/>
	<path class="st5" d="M29.47,36.69l-0.61-0.41L28.4,34.3h-0.89l-3.71,2.69h-3.29l-0.28,0.45v5.36c0,2.98,1.79,5.77,4.69,6.92
		c2.85-1,4.91-3.71,4.91-6.9v-5.3L29.47,36.69z"/>
	<g>
		<path class="st3" d="M20.35,42.82v-5.24l0.36-0.58h-5.35L15,37.57v5.24c0,3.82,2.99,7.31,7.52,7.31c0.91,0,1.78-0.17,2.59-0.48
			C22.17,48.57,20.35,45.8,20.35,42.82L20.35,42.82z"/>
	</g>
	<path class="st0" d="M29.36,27.95c-0.7,0.05-1.34-0.39-1.47-1.07c-0.23-1.16-0.8-2.31-3.04-2.31h-7.77c-2.85,0-5.16,2.31-5.16,5.16
		v5.67c0,1.2,0.97,2.17,2.17,2.17h8.82c1.97,0,3.69-1.11,4.55-2.73c0.07-0.13,0.26-0.08,0.26,0.07c0,1.47,1.2,2.67,2.67,2.67
		c0.77,0,1.4-0.63,1.4-1.4v-5.91C31.78,28.87,30.57,27.86,29.36,27.95L29.36,27.95z"/>
	<g>
		<path class="st1" d="M16.3,35.4v-5.67c0-2.85,2.31-5.16,5.16-5.16h-4.38c-2.85,0-5.16,2.31-5.16,5.16v5.67
			c0,1.2,0.97,2.17,2.17,2.17h4.38C17.27,37.57,16.3,36.6,16.3,35.4z"/>
	</g>
</g>
</svg>
