<?xml version="1.0" encoding="utf-8"?>
<!-- Generator: Adobe Illustrator 25.3.1, SVG Export Plug-In . SVG Version: 6.00 Build 0)  -->
<svg version="1.1" id="Layer_1" xmlns="http://www.w3.org/2000/svg" xmlns:xlink="http://www.w3.org/1999/xlink" x="0px" y="0px"
	 viewBox="0 0 36.04 26.34" style="enable-background:new 0 0 36.04 26.34;" xml:space="preserve">
<style type="text/css">
	.st0{fill:#00AC65;}
</style>
<g>
	<g>
		<g>
			<g>
				<path class="st0" d="M25.34,10.9l-7.93,6.97c-0.01,0.01-0.02,0.02-0.03,0.03c-0.26,0.26-0.4,0.6-0.4,0.96
					c0,0.75,0.61,1.36,1.36,1.36c0.36,0,0.7-0.14,0.99-0.43l6.97-7.93c0.24-0.27,0.22-0.67-0.03-0.93
					C26.02,10.68,25.61,10.66,25.34,10.9z"/>
				<path class="st0" d="M18.34,2.6C9.37,2.6,2.08,9.9,2.08,18.86c0,1.68,0.26,3.35,0.77,4.95c0.09,0.28,0.35,0.47,0.65,0.47h29.69
					c0.3,0,0.56-0.19,0.65-0.47c0.51-1.6,0.77-3.27,0.77-4.95C34.6,9.9,27.31,2.6,18.34,2.6z M31.21,19.54h1.99
					c-0.05,1.15-0.21,2.28-0.52,3.39H4c-0.31-1.1-0.47-2.24-0.52-3.39h1.99c0.37,0,0.68-0.3,0.68-0.68s-0.3-0.68-0.68-0.68h-2
					c0.1-2.22,0.68-4.31,1.65-6.17l1.74,1c0.11,0.06,0.22,0.09,0.34,0.09c0.23,0,0.46-0.12,0.59-0.34c0.19-0.32,0.08-0.74-0.25-0.93
					l-1.73-1c1.16-1.81,2.71-3.36,4.52-4.52l1,1.73c0.12,0.22,0.35,0.34,0.59,0.34c0.12,0,0.23-0.03,0.34-0.09
					c0.32-0.19,0.44-0.6,0.25-0.93l-1-1.74c1.86-0.97,3.96-1.55,6.18-1.65v2c0,0.37,0.3,0.68,0.68,0.68s0.68-0.3,0.68-0.68v-2
					c2.22,0.1,4.31,0.68,6.18,1.65l-1,1.74C24,7.7,24.11,8.11,24.44,8.3c0.11,0.06,0.22,0.09,0.34,0.09c0.23,0,0.46-0.12,0.59-0.34
					l1-1.73c1.81,1.16,3.36,2.71,4.52,4.52l-1.73,1c-0.32,0.19-0.44,0.6-0.25,0.93c0.12,0.22,0.35,0.34,0.59,0.34
					c0.12,0,0.23-0.03,0.34-0.09l1.74-1c0.97,1.86,1.55,3.96,1.65,6.17h-2c-0.37,0-0.68,0.3-0.68,0.68
					C30.53,19.24,30.84,19.54,31.21,19.54z"/>
			</g>
		</g>
	</g>
</g>
</svg>
