<?xml version="1.0" encoding="utf-8"?>
<!-- Generator: Adobe Illustrator 25.3.1, SVG Export Plug-In . SVG Version: 6.00 Build 0)  -->
<svg version="1.1" id="Layer_1" xmlns="http://www.w3.org/2000/svg" xmlns:xlink="http://www.w3.org/1999/xlink" x="0px" y="0px"
	 viewBox="0 0 41.4 30.26" style="enable-background:new 0 0 41.4 30.26;" xml:space="preserve">
<style type="text/css">
	.st0{fill:#00AC65;}
</style>
<g>
	<g>
		<g>
			<path class="st0" d="M20.98,29.27c-0.11,0-0.21-0.03-0.31-0.08l-12.2-6.63c-0.21-0.11-0.34-0.33-0.34-0.57L8.16,8.78
				c0-0.24,0.13-0.45,0.34-0.56l12.22-6.58c0.19-0.1,0.42-0.1,0.61,0l12.2,6.63c0.21,0.11,0.34,0.33,0.34,0.57l-0.02,13.21
				c0,0.24-0.13,0.45-0.34,0.56l-12.22,6.58C21.19,29.24,21.09,29.27,20.98,29.27z M9.42,21.61l11.56,6.28l11.58-6.24l0.02-12.45
				L21.03,2.93L9.45,9.17L9.42,21.61z M33.21,22.04L33.21,22.04L33.21,22.04z"/>
		</g>
		<g>
			<path class="st0" d="M20.98,29.27C20.98,29.27,20.98,29.27,20.98,29.27c-0.36,0-0.64-0.29-0.64-0.64l0.02-12.83L8.5,9.35
				C8.18,9.18,8.07,8.79,8.24,8.48C8.41,8.17,8.8,8.05,9.11,8.22l12.2,6.63c0.21,0.11,0.34,0.33,0.34,0.57l-0.02,13.21
				C21.62,28.98,21.34,29.27,20.98,29.27z"/>
		</g>
		<g>
			<path class="st0" d="M21.01,16.05c-0.23,0-0.45-0.12-0.57-0.34c-0.17-0.31-0.05-0.7,0.26-0.87l12.22-6.58
				c0.31-0.17,0.7-0.05,0.87,0.26c0.17,0.31,0.05,0.7-0.26,0.87l-12.22,6.58C21.21,16.03,21.11,16.05,21.01,16.05z"/>
		</g>
	</g>
</g>
</svg>
