<?xml version="1.0" encoding="utf-8"?>
<!-- Generator: Adobe Illustrator 25.3.1, SVG Export Plug-In . SVG Version: 6.00 Build 0)  -->
<svg version="1.1" id="Layer_1" xmlns="http://www.w3.org/2000/svg" xmlns:xlink="http://www.w3.org/1999/xlink" x="0px" y="0px"
	 viewBox="0 0 41.4 30.26" style="enable-background:new 0 0 41.4 30.26;" xml:space="preserve">
<style type="text/css">
	.st0{fill:#00AC65;}
</style>
<path class="st0" d="M2.81,23.55h1.14c0.41-2.99,2.96-5.32,6.05-5.34c0.01,0,0.03,0,0.04,0s0.03,0,0.04,0
	c1.5,0.01,2.88,0.56,3.94,1.47c-1,1.08-1.74,2.41-2.16,3.87h1.21c1.06-3.25,4.07-5.63,7.64-5.73c0.08,0.01,0.17,0.01,0.25,0.01
	c0.08,0,0.17,0,0.25-0.01c3.57,0.1,6.58,2.48,7.64,5.73h1.21c-0.41-1.45-1.14-2.76-2.13-3.85c1.07-0.93,2.46-1.48,3.98-1.5
	c0.01,0,0.03,0,0.04,0c0.01,0,0.03,0,0.04,0c3.1,0.02,5.65,2.35,6.05,5.34h1.17c-0.33-2.84-2.25-5.19-4.87-6.09
	c1.07-0.75,1.78-2,1.78-3.41c0-2.31-1.87-4.17-4.17-4.17s-4.17,1.87-4.17,4.17c0,1.41,0.7,2.66,1.78,3.41
	c-0.92,0.32-1.76,0.81-2.47,1.45c-0.98-0.83-2.13-1.47-3.38-1.84c1.53-0.93,2.55-2.61,2.55-4.53c0-2.92-2.37-5.29-5.29-5.29
	s-5.29,2.37-5.29,5.29c0,1.92,1.02,3.6,2.55,4.53c-1.24,0.38-2.38,1.01-3.35,1.82c-0.71-0.62-1.53-1.11-2.44-1.42
	c1.07-0.75,1.78-2,1.78-3.41c0-2.31-1.87-4.17-4.17-4.17c-2.31,0-4.17,1.87-4.17,4.17c0,1.41,0.7,2.66,1.78,3.41
	C5.06,18.37,3.13,20.72,2.81,23.55z M28.94,14.04c0-1.66,1.35-3.02,3.02-3.02c1.66,0,3.02,1.35,3.02,3.02
	c0,1.64-1.32,2.98-2.96,3.02c-0.02,0-0.04,0-0.06,0s-0.04,0-0.06,0C30.26,17.02,28.94,15.69,28.94,14.04z M16.84,12.53
	c0-2.28,1.85-4.13,4.13-4.13s4.13,1.85,4.13,4.13c0,2.2-1.73,4-3.89,4.12c-0.08,0-0.16,0-0.24,0c-0.08,0-0.16,0-0.24,0
	C18.57,16.53,16.84,14.73,16.84,12.53z M7.03,14.04c0-1.66,1.35-3.02,3.02-3.02c1.66,0,3.02,1.35,3.02,3.02
	c0,1.64-1.32,2.98-2.96,3.02c-0.02,0-0.04,0-0.06,0c-0.02,0-0.04,0-0.06,0C8.35,17.02,7.03,15.69,7.03,14.04z"/>
</svg>
