<?xml version="1.0" encoding="utf-8"?>
<!-- Generator: Adobe Illustrator 25.3.1, SVG Export Plug-In . SVG Version: 6.00 Build 0)  -->
<svg version="1.1" id="Layer_1" xmlns="http://www.w3.org/2000/svg" xmlns:xlink="http://www.w3.org/1999/xlink" x="0px" y="0px"
	 viewBox="0 0 41.4 30.26" style="enable-background:new 0 0 41.4 30.26;" xml:space="preserve">
<style type="text/css">
	.st0{fill:#00AC65;}
</style>
<g>
	<path class="st0" d="M2.74,22.58h1.14c0.41-3.01,2.97-5.34,6.08-5.36c0.01,0,0.03,0,0.04,0c0.01,0,0.03,0,0.04,0
		c1.51,0.01,2.89,0.57,3.96,1.47c-1,1.09-1.75,2.42-2.16,3.89h1.22c1.06-3.26,4.08-5.65,7.67-5.75c0.08,0.01,0.17,0.01,0.25,0.01
		c0.08,0,0.17,0,0.25-0.01c3.59,0.1,6.61,2.49,7.67,5.75h1.22c-0.41-1.46-1.14-2.77-2.14-3.86c1.07-0.93,2.47-1.49,3.99-1.5
		c0.01,0,0.03,0,0.04,0c0.01,0,0.03,0,0.04,0c3.11,0.02,5.67,2.36,6.08,5.36h1.17c-0.33-2.85-2.26-5.21-4.89-6.12
		c1.07-0.76,1.79-2.01,1.79-3.43c0-2.32-1.87-4.19-4.19-4.19s-4.19,1.87-4.19,4.19c0,1.42,0.7,2.67,1.79,3.43
		c-0.92,0.32-1.76,0.81-2.48,1.45c-0.98-0.83-2.13-1.47-3.4-1.85c1.53-0.93,2.56-2.62,2.56-4.54c0-2.93-2.37-5.31-5.31-5.31
		s-5.31,2.38-5.31,5.31c0,1.92,1.02,3.62,2.56,4.54c-1.25,0.38-2.39,1.01-3.36,1.83c-0.71-0.62-1.54-1.11-2.45-1.42
		c1.07-0.76,1.79-2.01,1.79-3.43c0-2.32-1.87-4.19-4.19-4.19c-2.32,0-4.19,1.87-4.19,4.19c0,1.42,0.7,2.67,1.79,3.43
		C5,17.38,3.06,19.73,2.74,22.58z M28.97,13.03c0-1.67,1.36-3.03,3.03-3.03c1.67,0,3.03,1.36,3.03,3.03c0,1.65-1.33,2.99-2.97,3.03
		c-0.02,0-0.04,0-0.06,0s-0.04,0-0.06,0C30.3,16.03,28.97,14.68,28.97,13.03z M16.82,11.52c0-2.29,1.86-4.15,4.15-4.15
		s4.15,1.86,4.15,4.15c0,2.21-1.74,4.02-3.91,4.14c-0.08,0-0.16,0-0.24,0c-0.08,0-0.16,0-0.24,0
		C18.56,15.53,16.82,13.72,16.82,11.52z M6.98,13.03C6.98,11.36,8.33,10,10,10c1.67,0,3.03,1.36,3.03,3.03
		c0,1.65-1.33,2.99-2.97,3.03c-0.02,0-0.04,0-0.06,0c-0.02,0-0.04,0-0.06,0C8.31,16.03,6.98,14.68,6.98,13.03z"/>
	<polyline class="st0" points="20.29,16.56 20.29,23.58 21.01,24.59 21.72,23.58 21.7,16.56 	"/>
	<polyline class="st0" points="9.65,16.8 9.65,21.28 10.11,21.92 10.56,21.28 10.55,16.8 	"/>
	<polyline class="st0" points="31.45,16.8 31.45,21.28 31.91,21.92 32.36,21.28 32.35,16.8 	"/>
</g>
</svg>
