<?xml version="1.0" encoding="utf-8"?>
<!-- Generator: Adobe Illustrator 25.3.1, SVG Export Plug-In . SVG Version: 6.00 Build 0)  -->
<svg version="1.1" id="Layer_1" xmlns="http://www.w3.org/2000/svg" xmlns:xlink="http://www.w3.org/1999/xlink" x="0px" y="0px"
	 viewBox="0 0 41.4 30.26" style="enable-background:new 0 0 41.4 30.26;" xml:space="preserve">
<style type="text/css">
	.st0{fill:#00AC65;}
</style>
<g>
	<g>
		<path class="st0" d="M34.35,27.11l-2.91-2.91c0.6-0.9,0.95-1.99,0.95-3.15c0-3.15-2.57-5.72-5.72-5.72s-5.72,2.57-5.72,5.72
			s2.57,5.72,5.72,5.72c1.16,0,2.24-0.35,3.15-0.95l2.91,2.91c0.45,0.45,1.17,0.45,1.62,0C34.8,28.28,34.8,27.56,34.35,27.11
			L34.35,27.11z M26.68,24.49c-1.89,0-3.43-1.54-3.43-3.43s1.54-3.43,3.43-3.43s3.43,1.54,3.43,3.43
			C30.11,22.95,28.57,24.49,26.68,24.49z"/>
		<path class="st0" d="M8.38,29.07c0.63,0,1.14-0.51,1.14-1.14v-8.01c0-0.63-0.51-1.14-1.14-1.14s-1.14,0.51-1.14,1.14v8.01
			C7.24,28.55,7.75,29.07,8.38,29.07z"/>
		<path class="st0" d="M16.39,27.92V15.34c0-0.63-0.51-1.14-1.14-1.14s-1.14,0.51-1.14,1.14v12.58c0,0.63,0.51,1.14,1.14,1.14
			S16.39,28.55,16.39,27.92z"/>
		<path class="st0" d="M23.25,8.48c0-0.63-0.51-1.14-1.14-1.14s-1.14,0.51-1.14,1.14v6.99c0.65-0.67,1.43-1.24,2.29-1.64V8.48z"/>
		<path class="st0" d="M28.97,1.62c-0.63,0-1.14,0.51-1.14,1.14v10.39c0.81,0.1,1.58,0.34,2.29,0.69V2.76
			C30.11,2.13,29.6,1.62,28.97,1.62z"/>
	</g>
</g>
</svg>
