<?xml version="1.0" encoding="utf-8"?>
<!-- Generator: Adobe Illustrator 25.3.1, SVG Export Plug-In . SVG Version: 6.00 Build 0)  -->
<svg version="1.1" id="Layer_1" xmlns="http://www.w3.org/2000/svg" xmlns:xlink="http://www.w3.org/1999/xlink" x="0px" y="0px"
	 viewBox="0 0 82.1 75.4" style="enable-background:new 0 0 82.1 75.4;" xml:space="preserve">
<style type="text/css">
	.st0{fill:#EDF5F9;}
	.st1{fill:#A3EFA9;}
	.st2{fill:#3FA046;}
	.st3{fill:#71CC75;}
</style>
<g>
	<path class="st0" d="M65.8,70.3c-16.5,0-32.9,0-49.4,0c-1.7-0.1-3.2-0.8-4.4-2c-1.6-1.6-2.4-3.5-2.4-5.8c0-5.8,0-11.5,0-17.3
		c0-5.7,0-11.5,0-17.2c0-0.4-0.1-0.9,0.2-1.2c0.4-0.2,0.8-0.2,1.2-0.2c10.5,0,21,0,31.5,0c9.5,0,19.1,0,28.6,0
		c0.4,0,0.9-0.1,1.2,0.1c0.3,0.3,0.3,0.7,0.3,1.1c0,3.7,0,7.3,0,11c0,7.8,0,15.6,0,23.4c0,2.4-0.8,4.5-2.6,6.1
		C68.8,69.6,67.4,70.2,65.8,70.3z"/>
	<path class="st1" d="M9.7,26.9c0-3.6,0-7.1,0-10.7c0-0.4-0.1-0.7,0.1-1.1c0.4,0.4,0.1,0.9,0.1,1.4c0.1-1.2,0.7-2.1,1.4-2.9
		c1.6-1.8,3.6-2.8,6-2.8c0.8,0,1.7,0,2.5,0c0.3,0,0.6,0,0.8,0.1c0.2,0.2,0.2,0.5,0.2,0.8c0,1,0,1.9,0,2.9c0,0.6-0.1,1.1-0.6,1.6
		c-0.7,0.8-0.8,2-0.2,2.8c0.6,0.9,1.6,1.3,2.6,1.1c1.7-0.4,2.4-2.6,1.2-4c-0.2-0.2-0.4-0.4-0.5-0.6c-0.2-1.3-0.1-2.7-0.1-4
		c0-0.2,0.1-0.3,0.2-0.5c0.2-0.2,0.5-0.2,0.7-0.2c2.8,0,5.5,0,8.3,0c0.3,0,0.5,0,0.7,0.2c0.2,0.2,0.2,0.4,0.2,0.6
		c0,1.3,0.1,2.6,0,3.9c-0.1,0.3-0.3,0.5-0.5,0.8c-0.7,0.9-0.8,2.2-0.1,3c0.7,0.9,2,1.2,3.1,0.7c1-0.5,1.5-1.7,1.2-2.8
		c-0.1-0.4-0.3-0.7-0.6-1c-0.2-0.2-0.4-0.4-0.5-0.7c-0.1-1.3-0.1-2.6,0-3.9c0-0.2,0.1-0.4,0.2-0.5c0.3-0.2,0.6-0.2,0.9-0.2
		c2.7,0,5.3,0,8,0c0.3,0,0.6,0,0.9,0.2c0.2,0.2,0.2,0.4,0.2,0.6c0,1.3,0.1,2.6,0,3.9c-0.1,0.3-0.3,0.5-0.5,0.7
		c-0.9,1-0.9,2.4,0.1,3.4c0.9,0.9,2.3,1,3.3,0.1c1-0.9,1.1-2.3,0.3-3.3c-0.2-0.3-0.5-0.5-0.6-0.8c-0.1-1.3-0.1-2.6,0-3.9
		c0-0.2,0.1-0.4,0.2-0.5c0.3-0.2,0.6-0.2,0.9-0.2c2.6,0,5.2,0,7.9,0c0.3,0,0.6,0,0.9,0.2c0.1,0.1,0.2,0.3,0.2,0.5c0,1.3,0.1,2.7,0,4
		c-0.1,0.3-0.3,0.4-0.5,0.6c-1.1,1.3-0.7,3.3,0.9,4c1,0.4,2.1,0,2.8-0.8c0.7-0.8,0.7-2.1,0-2.9c-0.5-0.6-0.7-1.2-0.6-2
		c0-0.9,0-1.8,0-2.7c0-0.3,0-0.5,0.1-0.7c0.1-0.1,0.1-0.1,0.2-0.1c2.2-0.1,4.5-0.3,6.6,0.8c1.7,0.9,2.9,2.2,3.7,4
		c0.1,0.3,0.2,0.6,0.2,0.9c0-0.4-0.3-0.9,0.1-1.3c0.2,0.4,0.1,0.7,0.1,1.1c0,3.5,0,7.1,0,10.6c-0.3,0-0.5,0.1-0.8,0.1
		c-20.4,0-40.8,0-61.1,0C10.2,26.9,10,26.9,9.7,26.9z"/>
	<path class="st2" d="M20.7,11c-1.6,0.1-3.3-0.2-4.9,0.2c-3,0.7-4.9,2.7-5.9,5.6c0-0.3,0-0.6,0-0.8c0-0.3,0-0.6,0-0.8
		c0.2-3.4,3.5-6.5,6.9-6.6c1.2-0.1,2.5,0,3.7,0c0.2,0,0.3,0.1,0.3,0.3C20.7,9.5,20.8,10.2,20.7,11z"/>
	<path class="st2" d="M72.3,15.1c0,0.6,0,1.1,0,1.7C71.8,15.3,71,14,69.9,13c-1.4-1.3-3-1.9-4.9-2c-1.2-0.1-2.4,0-3.6,0
		c-0.2-0.7,0-1.5-0.1-2.2c0-0.2,0.1-0.3,0.3-0.3c1.2,0,2.5-0.1,3.7,0C68.8,8.6,72.1,11.7,72.3,15.1z"/>
	<path class="st2" d="M23.6,11c0-0.8,0-1.7,0-2.5c3.2,0,6.5,0,9.7,0c0,0.8,0,1.7,0,2.5C30.1,11,26.8,11,23.6,11z"/>
	<path class="st2" d="M45.9,8.4c0,0.8,0,1.7,0,2.5c-3.2,0-6.5,0-9.7,0c0-0.8,0-1.7,0-2.5C39.4,8.4,42.7,8.4,45.9,8.4z"/>
	<path class="st2" d="M58.5,8.4c0,0.8,0,1.7,0,2.5c-3.2,0-6.5,0-9.7,0c0-0.8,0-1.7,0-2.5C52,8.4,55.3,8.4,58.5,8.4z"/>
	<path class="st2" d="M65.4,8.5c-1.1,0-2.2,0-3.4,0c-0.5,0-0.7,0.2-0.6,0.7c0,0.6,0,1.2,0,1.8c0,1.4,0,2.7,0,4.1
		c0,0.3,0.1,0.6,0.3,0.8c0.8,0.8,1,1.8,0.6,2.9c-0.4,1.1-1.3,1.6-2.4,1.7c-1,0.1-2.3-0.8-2.6-1.8c-0.3-1.1,0-2.5,1-3
		c0,0.6,0,1.2,0,1.8c0,0.9,0.6,1.6,1.5,1.6c0.8,0,1.3-0.7,1.3-1.6c0-2.7,0-5.5,0-8.2c0-0.3,0-0.5,0-0.8c1.1,0,2.2,0,3.4,0
		C65,8.4,65.2,8.4,65.4,8.5z"/>
	<path class="st2" d="M20.7,11c0-0.6,0-1.2,0-1.8c0-0.5-0.1-0.7-0.6-0.7c-1.1,0-2.2,0-3.4,0c1.1-0.2,2.1,0,3.2-0.1
		c0.3,0,0.5,0,0.8,0c0,1.1,0,2.2,0,3.3c0,1.9,0,3.8,0,5.7c0,0.9,0.6,1.5,1.3,1.5c0.8,0,1.4-0.6,1.5-1.5c0-0.6,0-1.3,0-1.9
		c0.9,0.5,1.3,1.5,1.1,2.7c-0.1,0.8-1.1,1.8-1.9,2c-1.3,0.3-2.4-0.2-3-1.2c-0.6-1-0.4-2.5,0.5-3.2c0.2-0.2,0.3-0.4,0.3-0.7
		C20.7,13.7,20.7,12.3,20.7,11z"/>
	<path class="st2" d="M33.3,15.5c0.1,0.7-0.1,1.5,0.1,2.2c0.2,0.7,0.7,1.2,1.3,1.2c0.7,0,1.3-0.5,1.4-1.2c0.1-0.7,0-1.5,0.1-2.2
		c1.3,1,1.3,1.8,1.1,2.9c-0.3,1.2-1.2,1.8-2.4,2c-0.8,0.1-2-0.6-2.4-1.4c-0.5-1-0.4-2.2,0.3-3C32.9,15.8,33.1,15.7,33.3,15.5z"/>
	<path class="st2" d="M45.9,15.5c0,0.6,0,1.2,0,1.8c0,0.9,0.6,1.5,1.3,1.6c0.7,0.1,1.4-0.5,1.5-1.4c0.1-0.7,0-1.3,0.1-2
		c1.4,0.9,1.5,2.8,0.5,3.9c-1.1,1.2-2.8,1.2-3.9,0C44.5,18.5,44.3,16.5,45.9,15.5z"/>
	<path class="st3" d="M37.6,41h-5.6c-0.5,0-0.8-0.4-0.8-0.8V35c0-0.5,0.4-0.8,0.8-0.8h5.6c0.5,0,0.8,0.4,0.8,0.8v5.2
		C38.4,40.7,38,41,37.6,41z"/>
	<path class="st3" d="M37.6,50.6h-5.6c-0.5,0-0.8-0.4-0.8-0.8v-5.2c0-0.5,0.4-0.8,0.8-0.8h5.6c0.5,0,0.8,0.4,0.8,0.8v5.2
		C38.4,50.2,38,50.6,37.6,50.6z"/>
	<path class="st3" d="M37.6,60h-5.6c-0.5,0-0.8-0.4-0.8-0.8V54c0-0.5,0.4-0.8,0.8-0.8h5.6c0.5,0,0.8,0.4,0.8,0.8v5.2
		C38.4,59.6,38,60,37.6,60z"/>
	<path class="st3" d="M26.6,50.6h-5.6c-0.5,0-0.8-0.4-0.8-0.8v-5.2c0-0.5,0.4-0.8,0.8-0.8h5.6c0.5,0,0.8,0.4,0.8,0.8v5.2
		C27.4,50.2,27,50.6,26.6,50.6z"/>
	<path class="st3" d="M26.5,60h-5.6c-0.5,0-0.8-0.4-0.8-0.8V54c0-0.5,0.4-0.8,0.8-0.8h5.6c0.5,0,0.8,0.4,0.8,0.8v5.2
		C27.4,59.6,27,60,26.5,60z"/>
	<path class="st3" d="M59.5,41.1h-5.6c-0.5,0-0.8-0.4-0.8-0.8V35c0-0.5,0.4-0.8,0.8-0.8h5.6c0.5,0,0.8,0.4,0.8,0.8v5.2
		C60.4,40.7,60,41.1,59.5,41.1z"/>
	<path class="st3" d="M59.5,50.6h-5.6c-0.5,0-0.8-0.4-0.8-0.8v-5.2c0-0.5,0.4-0.8,0.8-0.8h5.6c0.5,0,0.8,0.4,0.8,0.8v5.2
		C60.3,50.2,60,50.6,59.5,50.6z"/>
	<path class="st3" d="M48.4,41.1h-5.6c-0.5,0-0.8-0.4-0.8-0.8V35c0-0.5,0.4-0.8,0.8-0.8h5.6c0.5,0,0.8,0.4,0.8,0.8v5.2
		C49.2,40.7,48.9,41.1,48.4,41.1z"/>
	<path class="st3" d="M48.4,50.6h-5.6c-0.5,0-0.8-0.4-0.8-0.8v-5.2c0-0.5,0.4-0.8,0.8-0.8h5.6c0.5,0,0.8,0.4,0.8,0.8v5.2
		C49.2,50.3,48.9,50.6,48.4,50.6z"/>
	<path class="st3" d="M48.4,60h-5.6c-0.5,0-0.8-0.4-0.8-0.8V54c0-0.5,0.4-0.8,0.8-0.8h5.6c0.5,0,0.8,0.4,0.8,0.8v5.2
		C49.2,59.6,48.8,60,48.4,60z"/>
</g>
<path class="st2" d="M36.2,11c0,1.5,0,3.1,0,4.6c0.4,0.9,0.3,1.8,0,2.7c-0.2,0.6-0.7,0.9-1.4,0.9c-0.6,0-1.1-0.3-1.4-0.8
	c-0.4-0.9-0.5-1.9-0.1-2.8c0-1.5,0-3.1,0-4.6c-0.4-0.8-0.4-1.7,0-2.5c0-0.5,0-1.1,0-1.6c0-1.1,0.6-1.7,1.5-1.7
	c0.9,0,1.4,0.7,1.4,1.7c0,0.5,0,1.1,0,1.6C36.6,9.3,36.6,10.1,36.2,11z"/>
<path class="st2" d="M48.8,11c0,1.5,0,3.1,0,4.6c0.4,1,0.3,1.9-0.1,2.8c-0.3,0.5-0.8,0.8-1.4,0.8c-0.7-0.1-1.2-0.4-1.4-1.1
	c-0.3-0.8-0.3-1.7,0-2.5c0-1.5,0-3.1,0-4.6c-0.4-0.8-0.4-1.7,0-2.5c0-0.6,0-1.2,0-1.8c0-0.9,0.6-1.6,1.4-1.6c0.8,0,1.4,0.6,1.4,1.5
	c0,0.6,0,1.2,0,1.8C49.2,9.3,49.2,10.1,48.8,11z"/>
<path class="st2" d="M23.6,11c0,1.5,0,3.1,0,4.6c0.4,0.8,0.3,1.7,0,2.5c-0.2,0.7-1,1.2-1.7,1c-0.7-0.1-1.3-0.7-1.3-1.5
	c0-0.7-0.1-1.4,0.1-2.1c0.1-0.5,0-1,0-1.5c0.1-1.6-0.1-3.2-0.1-4.8c0-0.3,0-0.6,0.1-0.8c0-0.6,0-1.3,0-1.9c0-0.8,0.6-1.4,1.4-1.4
	c0.8,0,1.4,0.6,1.4,1.4c0,0.7,0,1.3,0,2C24,9.3,23.9,10.1,23.6,11z"/>
<path class="st2" d="M58.5,15.5c0-1.5,0-3.1,0-4.6c-0.3-0.8-0.3-1.7,0-2.5c0-0.6,0-1.2,0-1.8c0-0.9,0.6-1.5,1.4-1.5
	c0.8,0,1.4,0.6,1.4,1.5c0,0.6,0,1.2,0,1.8c0.2,0.7,0.1,1.5,0.1,2.3c-0.1,1.7-0.2,3.5,0,5.2c0.1,0.6,0.1,1.2,0,1.8
	c-0.1,0.8-0.6,1.4-1.3,1.5c-0.7,0.1-1.5-0.3-1.7-1C58.2,17.2,58.1,16.4,58.5,15.5z"/>
</svg>
