<?xml version="1.0" encoding="utf-8"?>
<!-- Generator: Adobe Illustrator 25.3.1, SVG Export Plug-In . SVG Version: 6.00 Build 0)  -->
<svg version="1.1" id="Layer_1" xmlns="http://www.w3.org/2000/svg" xmlns:xlink="http://www.w3.org/1999/xlink" x="0px" y="0px"
	 viewBox="0 0 41.4 30.26" style="enable-background:new 0 0 41.4 30.26;" xml:space="preserve">
<style type="text/css">
	.st0{fill:#00AC65;}
</style>
<g>
	<g>
		<path class="st0" d="M33.94,5.8H8.09c-0.81,0-1.48,0.66-1.48,1.48v16.25c0,0.81,0.66,1.48,1.48,1.48h25.85
			c0.81,0,1.48-0.66,1.48-1.48V7.27C35.42,6.46,34.76,5.8,33.94,5.8z M33.39,6.9l-11.52,8.64c-0.21,0.16-0.53,0.26-0.85,0.25
			c-0.32,0-0.64-0.1-0.85-0.25L8.64,6.9H33.39z M27.23,16.12l6.28,7.76c0.01,0.01,0.01,0.01,0.02,0.02H8.5
			c0.01-0.01,0.01-0.01,0.02-0.02l6.28-7.76c0.19-0.24,0.16-0.59-0.08-0.78c-0.24-0.19-0.59-0.16-0.78,0.08L7.72,23.1V7.6
			l11.78,8.84c0.44,0.33,0.98,0.47,1.51,0.48c0.53,0,1.07-0.15,1.51-0.48L34.31,7.6v15.5l-6.22-7.68c-0.19-0.24-0.54-0.27-0.78-0.08
			C27.08,15.53,27.04,15.88,27.23,16.12z"/>
	</g>
</g>
</svg>
