<?xml version="1.0" encoding="utf-8"?>
<!-- Generator: Adobe Illustrator 25.3.1, SVG Export Plug-In . SVG Version: 6.00 Build 0)  -->
<svg version="1.1" id="Layer_1" xmlns="http://www.w3.org/2000/svg" xmlns:xlink="http://www.w3.org/1999/xlink" x="0px" y="0px"
	 viewBox="0 0 82.1 75.4" style="enable-background:new 0 0 82.1 75.4;" xml:space="preserve">
<style type="text/css">
	.st0{fill:#E8E7FE;}
	.st1{fill:#DEDDFE;}
	.st2{fill:#FEC500;}
	.st3{fill:#F9E8E5;}
	.st4{fill:#4085F6;}
	.st5{fill:#FEFEFE;}
	.st6{fill:#F8E7E5;}
	.st7{fill:#FFFFFF;}
</style>
<g>
	<path class="st0" d="M51.5,49.6c-12.4,0-24.9,0-37.3,0c-2.5,0-5-1.5-5.6-4.7c-1-5.4-2.1-10.8-3.2-16.2c0-0.1-0.1-0.1-0.1-0.2
		c0-0.4,0-0.9,0-1.3c0.2-1.6,1.3-2.3,2.7-2.6c1.8-0.4,3.6-0.7,5.5-1c2.6-0.5,5.1-1,7.7-1.4c3.3-0.7,6.7-1.3,10-1.9
		c0.7-0.1,1.4-0.2,2-0.4c1.9-0.4,3.9-0.8,5.8-1.1c2.2-0.4,4.3-0.8,6.5-1.2c1.7-0.3,3.4-0.6,5.1-1c0.3,0,0.5-0.1,0.8,0
		c1.5-0.1,3-0.5,4.5-0.8c0.3,0,0.5-0.1,0.8-0.1c0.3,0.3,0.2,0.6,0.1,1c-0.7,4.5-1.4,9-2.1,13.6c-0.2,1.5-0.4,2.9-0.7,4.4
		c-0.1,0.3-0.1,0.7-0.4,1c-0.4,0.2-0.9,0.1-1.3,0.1c-12.7,0-25.3,0-38,0c-0.4,0-0.8,0-1.2,0.1c-0.4,0.1-0.7,0.4-0.7,0.8
		c0,0.4,0.3,0.7,0.7,0.8c0.4,0.1,0.8,0.1,1.2,0.1c12.6,0,25.2,0,37.8,0c0.5,0,0.9-0.1,1.3,0.1c0.2,0.1,0.2,0.2,0.1,0.4
		c-0.2,1.1-0.4,2.3-0.6,3.4c0,0.2-0.1,0.3-0.2,0.4c-1.4-0.2-2.8-0.1-4.2-0.1c-10.9,0-21.8,0-32.7,0c-0.4,0-0.8,0-1.1,0
		c-0.4,0.1-0.8,0.3-0.8,0.8c0,0.5,0.3,0.7,0.7,0.9c0.3,0.1,0.7,0.1,1.1,0.1c11.9,0,23.8,0,35.7,0c0.4,0,0.7-0.1,1.1,0
		c0.3,0.1,0.2,0.4,0.2,0.6c-0.2,1.6-0.5,3.2-0.7,4.8C51.7,49.2,51.7,49.5,51.5,49.6z"/>
	<path class="st1" d="M51.5,49.6c0.3-2,0.5-4,1-6c0.4-0.6,0.6-1.2,0.3-1.9c-0.1-1.2,0.4-2.4,0.4-3.6c0-0.2,0.2-0.3,0.3-0.4
		c0.1-0.2,0.2-0.2,0.3-0.4c0.4-0.5,0.4-0.8,0-1.4c-0.1-0.1-0.3-0.2-0.2-0.4c0.3-2,0.6-3.9,0.9-5.9c0.3-2.1,0.6-4.2,1-6.2
		c0.4-2.4,0.7-4.7,1.1-7.1c0-0.2,0-0.4,0-0.6c1.4-0.4,2.8-0.5,4.2-0.9c0.2-0.1,0.5-0.1,0.7-0.1c0.3,0.3,0.2,0.7,0.1,1.1
		c-0.7,4.8-1.5,9.6-2.2,14.3c-0.9,6.1-1.9,12.2-2.8,18.3c-0.1,0.4-0.1,0.8-0.4,1.1C54.6,49.7,53,49.7,51.5,49.6z"/>
	<path class="st2" d="M49.9,64.3c-7.3,0-14.6,0-22,0c-0.2-0.1-0.2-0.2-0.2-0.4c-0.1-1.7-0.9-3-2.1-4.1c-0.2-0.1-0.4-0.3-0.4-0.6
		c6.1,0,12.3,0,18.4,0c1.7,0,3.1-0.5,4.4-1.6c2.6-2.2,5.2-4.4,7.8-6.6c0.4,0.1,0.3,0.4,0.3,0.7c-0.3,2.2-0.6,4.4-1,6.5
		c-0.1,0.3-0.4,0.4-0.7,0.4c-2.4,0.8-3.8,2.5-4.2,5C50.1,63.8,50.1,64.1,49.9,64.3z"/>
	<path class="st3" d="M54.9,58.2c0.3-2.1,0.7-4.3,1-6.4c0-0.3,0.3-0.6-0.1-0.8c0.4-0.4,0.3-0.9,0.4-1.3c0.3-1.7,0.5-3.4,0.8-5.1
		c0.4-2.4,0.7-4.7,1.1-7.1c0.3-1.9,0.6-3.9,0.9-5.8c0.4-2.4,0.7-4.7,1.1-7.1c0.4-2.6,0.8-5.1,1.2-7.7c0.1-0.7,0.3-1.3,0.2-2
		c0.3-1,0.4-2.1,0.6-3.2c0.3-1.9,0.6-3.7,2.2-5C65.4,5.6,66.8,5,68.4,5c0.3,0.8,0.3,1.5,0,2.3c-2.1-0.2-3.7,1.8-3.9,3.4
		c-0.5,3.5-1.1,7-1.7,10.5c-0.6,3.6-1.1,7.2-1.6,10.7c-0.5,3.2-1,6.4-1.5,9.6c-0.6,3.8-1.2,7.7-1.7,11.5c-0.3,1.7-0.6,3.5-0.8,5.2
		C56.3,58.4,55.6,58.4,54.9,58.2z"/>
	<path class="st4" d="M54.9,58.2c0.7-0.1,1.5-0.1,2.2,0c2.7,0.6,4.4,2.3,4.9,4.9c0.7,3.2-1.6,6.5-4.7,7.1c-3.4,0.7-6.6-1.4-7.2-4.7
		c-0.1-0.4-0.1-0.9-0.2-1.3C50,61.3,51.9,58.9,54.9,58.2z"/>
	<path class="st4" d="M25.2,59.1c1.7,1.3,2.6,3,2.7,5.1c-0.1,2.6-1.3,4.6-3.7,5.6c-3.9,1.7-8.3-1-8.5-5.3c0-0.1,0-0.2,0-0.4
		c-0.2-0.2-0.2-0.4-0.1-0.7c0.3-1.6,0.9-3,2.2-4.1c0.2-0.2,0.4-0.2,0.6-0.3C20.6,57.8,22.9,57.8,25.2,59.1z"/>
	<path class="st2" d="M68.4,7.3c0-0.8,0-1.5,0-2.3C71,5,73.5,5,76,5c1.4,0,2.5,1.2,2.5,2.5c0,1.4-1.1,2.5-2.5,2.5c-1.5,0-3,0-4.6,0
		C69.4,10,68.6,9.3,68.4,7.3z"/>
	<path class="st2" d="M18.4,59.1c-1.7,1.3-2.6,3-2.7,5.1c-1.4,0-2.8,0-4.2,0c-1.6,0-2.8-1.1-2.8-2.6c0-1.5,1.1-2.5,2.7-2.5
		C13.7,59.1,16,59.1,18.4,59.1z"/>
	<path class="st5" d="M53.6,35.6c1,0.8,1,1.6-0.1,2.1c-13.3,0-26.5,0-39.8,0c-0.2,0-0.4,0-0.6,0c-0.7,0-1.1-0.4-1.2-1
		c0-0.6,0.5-1.1,1.2-1.1c0.1,0,0.2,0,0.3,0C26.8,35.6,40.2,35.6,53.6,35.6z"/>
	<path class="st5" d="M52.8,41.8c0.6,0.9,0.6,1.2-0.3,1.9c-0.4,0.1-0.7,0.1-1.1,0.1c-12,0-24,0-36,0c-0.4,0-0.7,0-1.1-0.1
		c-0.6-0.2-0.8-0.6-0.8-1.2c0.1-0.6,0.5-0.8,1-0.9c0.2,0,0.3,0,0.5,0c12.2,0,24.3,0,36.5,0C52,41.5,52.4,41.5,52.8,41.8z"/>
	<path class="st6" d="M56,65.4c-0.6,0-1.1-0.5-1.1-1.1c0-0.6,0.5-1.1,1.1-1.1c0.6,0,1.1,0.4,1.1,1.1C57.1,64.9,56.6,65.4,56,65.4z"
		/>
	<path class="st6" d="M22.8,64.3c0,0.6-0.5,1.1-1.1,1.1c-0.6,0-1.1-0.5-1-1.1c0-0.6,0.5-1.1,1.1-1.1C22.4,63.2,22.9,63.7,22.8,64.3z
		"/>
	<circle class="st7" cx="56" cy="64.3" r="4.3"/>
	<circle class="st7" cx="21.7" cy="64.3" r="4.4"/>
</g>
</svg>
