<?xml version="1.0" encoding="utf-8"?>
<!-- Generator: Adobe Illustrator 25.3.1, SVG Export Plug-In . SVG Version: 6.00 Build 0)  -->
<svg version="1.1" id="Layer_1" xmlns="http://www.w3.org/2000/svg" xmlns:xlink="http://www.w3.org/1999/xlink" x="0px" y="0px"
	 viewBox="0 0 82.1 75.4" style="enable-background:new 0 0 82.1 75.4;" xml:space="preserve">
<style type="text/css">
	.st0{fill:#FEB720;}
	.st1{fill:#FECF6A;}
	.st2{fill:#E8E7FE;}
</style>
<g>
	<g>
		<path class="st0" d="M43.8,21.2l4.6,14.1c0.4,1.2,1.5,2,2.8,2H66c2.8,0,4,3.6,1.7,5.2l-12,8.7c-1,0.7-1.4,2-1.1,3.2l4.6,14.1
			c0.9,2.7-2.2,4.9-4.5,3.2l-12-8.7c-1-0.7-2.4-0.7-3.4,0l-12,8.7c-2.3,1.6-5.3-0.6-4.5-3.2l4.6-14.1c0.4-1.2,0-2.5-1.1-3.2l-12-8.7
			c-2.3-1.6-1.1-5.2,1.7-5.2H31c1.3,0,2.4-0.8,2.8-2l4.6-14.1C39.2,18.6,42.9,18.6,43.8,21.2z"/>
		<path class="st1" d="M42.6,21.2l5.3,18.3c0.4,1.2,17.4,1,15.1,2.6l-13,8.4c-1,0.7,8,18.4,5.8,16.8l-12-4.2c-1-0.7-2.4-0.7-3.4,0
			l-12,8.7c-2.3,1.6-5.3-0.6-4.5-3.2l4.6-14.1c0.4-1.2,0-2.5-1.1-3.2l-12-8.7c-2.3-1.6-1.1-5.2,1.7-5.2h14.8c1.3,0,2.4-0.8,2.8-2
			l4.6-14.1C40.1,18.6,41.7,18.6,42.6,21.2z"/>
	</g>
	<path class="st2" d="M15.2,32.1h-0.5c-0.4,0-0.7-0.3-0.7-0.7V14.1c0-0.4,0.3-0.7,0.7-0.7h0.5c0.4,0,0.7,0.3,0.7,0.7v17.3
		C15.9,31.8,15.6,32.1,15.2,32.1z"/>
	<path class="st2" d="M67.3,32.6h0.5c0.4,0,0.7-0.3,0.7-0.7V14.6c0-0.4-0.3-0.7-0.7-0.7h-0.5c-0.4,0-0.7,0.3-0.7,0.7v17.3
		C66.7,32.3,67,32.6,67.3,32.6z"/>
	<path class="st2" d="M36.3,12.3h-0.5c-0.4,0-0.7-0.3-0.7-0.7v-8c0-0.4,0.3-0.7,0.7-0.7h0.5c0.4,0,0.7,0.3,0.7,0.7v8
		C37,12,36.7,12.3,36.3,12.3z"/>
	<path class="st2" d="M25,15h-0.5c-0.4,0-0.7-0.3-0.7-0.7v-8c0-0.4,0.3-0.7,0.7-0.7H25c0.4,0,0.7,0.3,0.7,0.7v8
		C25.7,14.7,25.4,15,25,15z"/>
	<path class="st2" d="M25,27.8h-0.5c-0.4,0-0.7-0.3-0.7-0.7v-8c0-0.4,0.3-0.7,0.7-0.7H25c0.4,0,0.7,0.3,0.7,0.7v8
		C25.7,27.5,25.4,27.8,25,27.8z"/>
	<path class="st2" d="M57.5,15.9H57c-0.4,0-0.7-0.3-0.7-0.7v-8c0-0.4,0.3-0.7,0.7-0.7h0.5c0.4,0,0.7,0.3,0.7,0.7v8
		C58.2,15.6,57.9,15.9,57.5,15.9z"/>
	<path class="st2" d="M57.5,28.7H57c-0.4,0-0.7-0.3-0.7-0.7v-8c0-0.4,0.3-0.7,0.7-0.7h0.5c0.4,0,0.7,0.3,0.7,0.7v8
		C58.2,28.4,57.9,28.7,57.5,28.7z"/>
	<path class="st2" d="M46.4,12.3H46c-0.4,0-0.7-0.3-0.7-0.7v-8c0-0.4,0.3-0.7,0.7-0.7h0.5c0.4,0,0.7,0.3,0.7,0.7v8
		C47.1,12,46.8,12.3,46.4,12.3z"/>
</g>
</svg>
