<?xml version="1.0" encoding="utf-8"?>
<!-- Generator: Adobe Illustrator 25.3.1, SVG Export Plug-In . SVG Version: 6.00 Build 0)  -->
<svg version="1.1" id="Layer_1" xmlns="http://www.w3.org/2000/svg" xmlns:xlink="http://www.w3.org/1999/xlink" x="0px" y="0px"
	 viewBox="0 0 35.68 32.52" style="enable-background:new 0 0 35.68 32.52;" xml:space="preserve">
<style type="text/css">
	.st0{fill:#00AC65;}
</style>
<g>
	<g>
		<path class="st0" d="M17.58,1.46c-8.18,0-14.8,6.63-14.8,14.8s6.63,14.8,14.8,14.8c8.18,0,14.8-6.63,14.8-14.8
			S25.76,1.46,17.58,1.46z M17.58,5.88c2.71,0,4.9,2.19,4.9,4.9c0,2.7-2.19,4.9-4.9,4.9c-2.7,0-4.9-2.19-4.9-4.9
			C12.69,8.08,14.88,5.88,17.58,5.88z M17.58,27.19c-2.7,0-5.17-0.98-7.08-2.61c-0.46-0.4-0.73-0.98-0.73-1.59
			c0-2.74,2.22-4.94,4.96-4.94h5.7c2.74,0,4.95,2.19,4.95,4.94c0,0.61-0.27,1.19-0.73,1.59C22.75,26.21,20.28,27.19,17.58,27.19z"/>
	</g>
</g>
</svg>
