<?xml version="1.0" encoding="utf-8"?>
<!-- Generator: Adobe Illustrator 25.3.1, SVG Export Plug-In . SVG Version: 6.00 Build 0)  -->
<svg version="1.1" id="Layer_1" xmlns="http://www.w3.org/2000/svg" xmlns:xlink="http://www.w3.org/1999/xlink" x="0px" y="0px"
	 viewBox="0 0 41.4 30.26" style="enable-background:new 0 0 41.4 30.26;" xml:space="preserve">
<style type="text/css">
	.st0{fill:#00AC65;}
</style>
<g>
	<path class="st0" d="M28.66,18.97c0.16-0.29,0.07-0.65-0.22-0.82c-0.29-0.16-0.65-0.07-0.82,0.22c-0.16,0.29-0.07,0.65,0.22,0.82
		C28.13,19.35,28.5,19.25,28.66,18.97z"/>
	<path class="st0" d="M35.46,21.51c1.16-2,0.46-4.56-1.53-5.71l-5.07-2.93l-7.8-9.93c-0.33-0.52-0.89-0.83-1.51-0.83
		c-0.01,0-0.02,0-0.02,0C18.9,2.13,18.32,2.46,18,3.01l-2.2,3.82l-2.3-0.14c-0.23-0.01-0.44,0.1-0.55,0.3l-1.19,2.07
		c-0.11,0.2-0.11,0.44,0.02,0.63l1.27,1.92l-1.98,3.44c-0.67,1.16,0.12,2.61,1.45,2.68c10.73,2.11,11.34,2.22,11.43,2.24l-0.78,1.34
		c-0.16,0.29-0.07,0.65,0.22,0.82l1.55,0.9l-1.79,3.1c-0.66,1.14-0.27,2.6,0.87,3.26c1.15,0.67,2.61,0.25,3.26-0.87l3.01-5.21
		C32.18,24.06,34.41,23.34,35.46,21.51z M27.17,21.55l2.07,1.19l-2.98,5.17c-0.33,0.57-1.06,0.77-1.63,0.44
		c-0.57-0.33-0.77-1.06-0.44-1.63C24.24,26.63,23.71,27.54,27.17,21.55z M24.5,21.39l0.6-1.03l1.03,0.6l-0.6,1.03L24.5,21.39z
		 M15.13,7.98l-1.42,2.46l-0.74-1.11L13.8,7.9L15.13,7.98z M20.27,3.87l-7.35,12.72c-0.21-0.04-0.25-0.05-0.33-0.06
		c-0.45-0.01-0.73-0.5-0.5-0.9l6.94-12.03c0.15-0.27,0.41-0.3,0.51-0.3c0.1,0,0.36,0.02,0.52,0.29C20.1,3.65,20.12,3.67,20.27,3.87z
		 M27.75,13.39l-3.17,5.49l-10.42-2.04l6.9-11.95L27.75,13.39z M30.35,22.01l-4.65-2.69l2.98-5.17l4.65,2.69
		c0.92,0.53,1.49,1.52,1.49,2.59c0,0.52-0.14,1.04-0.4,1.49C33.61,22.34,31.78,22.83,30.35,22.01z"/>
	<path class="st0" d="M29.91,20.38l1.03,0.6c0.86,0.5,1.96,0.2,2.45-0.66c0.16-0.29,0.07-0.65-0.22-0.82
		c-0.29-0.16-0.65-0.07-0.82,0.22c-0.16,0.28-0.53,0.38-0.82,0.22l-1.03-0.6c-0.29-0.16-0.65-0.07-0.82,0.22
		C29.53,19.85,29.63,20.21,29.91,20.38z"/>
	<path class="st0" d="M5.53,3.63C5.37,3.91,5.47,4.28,5.76,4.44l3.33,1.85C9.38,6.45,9.74,6.35,9.9,6.06
		c0.16-0.29,0.06-0.65-0.23-0.81L6.34,3.4C6.06,3.23,5.69,3.34,5.53,3.63z"/>
	<path class="st0" d="M6.27,10.31c0.08,0.32,0.41,0.51,0.73,0.42l2.31-0.62c0.32-0.09,0.51-0.41,0.42-0.73
		C9.65,9.06,9.32,8.87,9,8.96L6.69,9.58C6.37,9.66,6.18,9.99,6.27,10.31z"/>
	<path class="st0" d="M11.76,0.8c-0.32,0.09-0.51,0.41-0.42,0.73l0.62,2.31c0.09,0.32,0.41,0.51,0.73,0.42
		c0.32-0.09,0.51-0.41,0.42-0.73l-0.62-2.31C12.4,0.91,12.08,0.72,11.76,0.8z"/>
</g>
</svg>
