<?xml version="1.0" encoding="utf-8"?>
<!-- Generator: Adobe Illustrator 25.3.1, SVG Export Plug-In . SVG Version: 6.00 Build 0)  -->
<svg version="1.1" id="Layer_1" xmlns="http://www.w3.org/2000/svg" xmlns:xlink="http://www.w3.org/1999/xlink" x="0px" y="0px"
	 viewBox="0 0 41.4 30.26" style="enable-background:new 0 0 41.4 30.26;" xml:space="preserve">
<style type="text/css">
	.st0{fill:#00AC65;}
</style>
<g>
	<path class="st0" d="M14.77,13.92H9.96c-0.55,0-1,0.45-1,1v11.55c0,0.55,0.45,1,1,1h4.81c0.55,0,1-0.45,1-1V14.92
		C15.77,14.36,15.32,13.92,14.77,13.92z M14.77,26.43L10,26.47V14.96l4.73-0.04L14.77,26.43z"/>
	<path class="st0" d="M23.41,3.33H18.6c-0.55,0-1,0.45-1,1v22.13c0,0.55,0.45,1,1,1h4.81c0.55,0,1-0.45,1-1V4.33
		C24.41,3.78,23.96,3.33,23.41,3.33z M23.41,26.43l-4.77,0.04V4.37l4.73-0.04L23.41,26.43z"/>
	<path class="st0" d="M32.07,8.14h-4.81c-0.55,0-1,0.45-1,1v17.32c0,0.55,0.45,1,1,1h4.81c0.55,0,1-0.45,1-1V9.14
		C33.07,8.59,32.63,8.14,32.07,8.14z M32.07,26.43l-4.77,0.04V9.18l4.73-0.04L32.07,26.43z"/>
</g>
</svg>
