<?xml version="1.0" encoding="utf-8"?>
<!-- Generator: Adobe Illustrator 25.3.1, SVG Export Plug-In . SVG Version: 6.00 Build 0)  -->
<svg version="1.1" id="Layer_1" xmlns="http://www.w3.org/2000/svg" xmlns:xlink="http://www.w3.org/1999/xlink" x="0px" y="0px"
	 viewBox="0 0 82.11 75.44" style="enable-background:new 0 0 82.11 75.44;" xml:space="preserve">
<style type="text/css">
	.st0{fill:#DCA700;}
	.st1{fill:#CC8200;}
	.st2{fill:#FFD800;}
	.st3{fill:#007A6E;}
	.st4{fill:#009F5E;}
	.st5{fill:#00917F;}
	.st6{fill:#00AC65;}
	.st7{fill:#00C169;}
	.st8{fill:#FFE6C6;}
	.st9{fill:#E5AC91;}
	.st10{fill:#FFD6A0;}
	.st11{fill:#FFCBA1;}
	.st12{fill:#E6C190;}
</style>
<g>
	<path class="st0" d="M16.52,15.83c0-1.85,1.34-3.79,3.98-5.31c4.81-2.78,12.09-3.08,16.26-0.67c1.87,1.08,2.79,2.52,2.81,4.03h0
		v2.29v0.1v2.29l0,0c0,0.02,0,0.03,0,0.05l0,0v2.22V21v2.22l0,0c0,0.02,0,0.03,0,0.05l0,0v2.39l0,0c0,0.04,0,0.07,0,0.11l0.01,0
		v2.39l0,0c0.05,1.88-1.29,3.87-3.98,5.41c-4.81,2.78-12.09,3.08-16.26,0.67c-1.93-1.12-2.84-2.62-2.8-4.19l0-2.34
		c0-0.06,0-0.11,0-0.17l0-2.34c0-0.03,0-0.07,0-0.1l0-2.34l0-2.22c0-0.03,0-0.07,0-0.1l-0.01-2.29h0L16.52,15.83L16.52,15.83z"/>
	<g>
		<path class="st1" d="M19.33,24.65c4.17,2.41,11.45,2.1,16.26-0.67c2.66-1.54,4-3.51,3.97-5.37l0,0V21l0,0
			c0.05,1.88-1.29,3.87-3.98,5.41c-4.81,2.78-12.09,3.08-16.26,0.67c-1.93-1.12-2.84-2.62-2.8-4.19l0-2.34
			C16.53,22.09,17.44,23.56,19.33,24.65z"/>
		<path class="st1" d="M19.33,29.31c4.17,2.41,11.45,2.1,16.26-0.67c2.66-1.54,4-3.51,3.97-5.37l0,0v2.39l0,0
			c0.05,1.88-1.29,3.87-3.98,5.41c-4.81,2.78-12.09,3.08-16.26,0.67c-1.93-1.12-2.84-2.62-2.8-4.19l0-2.34
			C16.53,26.75,17.44,28.21,19.33,29.31z"/>
	</g>
	<path class="st0" d="M20.5,10.52c-4.81,2.78-5.33,6.98-1.17,9.39s11.45,2.1,16.26-0.67s5.33-6.98,1.17-9.39S25.31,7.74,20.5,10.52z
		"/>
	<path class="st1" d="M39.57,13.87c0.02,1.86-1.32,3.83-3.98,5.36c-4.81,2.78-12.09,3.08-16.26,0.67c-1.89-1.09-2.81-2.55-2.81-4.07
		l0,0v2.34c0,0,0.07,2.56,2.81,4.18c4.14,2.45,11.45,2.1,16.26-0.67c2.68-1.55,4.03-3.54,3.97-5.41l0,0L39.57,13.87
		C39.57,13.87,39.57,13.87,39.57,13.87z"/>
	<path class="st2" d="M21.84,11.29c-3.96,2.28-4.39,5.74-0.96,7.72s9.41,1.73,13.37-0.55s4.39-5.74,0.96-7.72
		C31.78,8.76,25.8,9.01,21.84,11.29z"/>
	<path class="st0" d="M22.9,13.85c-0.61,1.77,2.23,3.14,3.47,3.59c1.62,0.59,3.4,0.73,5.01,0l1.09,0.63l1.02-0.59l-1.09-0.63
		c0.42-0.31,0.73-0.64,0.93-0.99l-1.75-1.01c-0.22,0.4-0.51,0.74-0.86,1.02l-4.41-2.54c0.47-0.18,0.99-0.28,1.49-0.37l-1.08-1.26
		c-0.8,0.13-1.51,0.35-2.12,0.63l-1.01-0.58l-1.02,0.59l1.03,0.59C23.25,13.22,23.02,13.52,22.9,13.85
		C22.74,14.31,23.02,13.52,22.9,13.85z M25.4,13.98l4.18,2.41C28.64,16.55,24.75,15.45,25.4,13.98z"/>
	<polyline class="st3" points="80.43,28.64 80.43,38.71 28.35,68.71 2.31,53.69 2.31,43.67 2.31,43.67 54.39,13.61 80.43,28.64 	"/>
	<polygon class="st4" points="80.43,28.64 80.43,38.71 28.35,68.71 28.35,58.72 	"/>
	<g>
		<polygon class="st5" points="28.35,60.72 80.43,30.65 80.43,32.65 28.35,62.74 2.35,47.73 2.35,45.72 		"/>
		<polygon class="st5" points="28.36,64.72 80.43,34.66 80.43,36.67 28.36,66.74 2.31,51.72 2.31,49.72 		"/>
	</g>
	<g>
		<polygon class="st6" points="80.43,30.65 80.43,32.65 28.35,62.74 28.35,60.72 		"/>
		<polygon class="st6" points="80.43,34.66 80.43,36.67 28.36,66.74 28.36,64.72 		"/>
	</g>
	<polygon class="st7" points="11.85,49.19 2.31,43.67 2.31,43.67 2.31,43.67 54.39,13.61 80.43,28.64 28.35,58.72 	"/>
	<polygon class="st8" points="7.29,43.68 28.38,55.83 75.47,28.64 54.39,16.48 	"/>
	<polygon class="st6" points="70.55,28.64 54.41,19.32 12.31,43.68 28.41,52.95 	"/>
	<polygon class="st9" points="37.03,23.63 63.07,38.67 63.07,48.71 45.75,58.68 45.75,48.67 19.69,33.64 	"/>
	<polygon class="st10" points="37.03,23.63 63.07,38.67 45.75,48.67 19.69,33.64 	"/>
	<polygon class="st9" points="45.75,48.67 45.75,58.68 63.07,48.71 63.07,38.67 	"/>
	<polygon class="st8" points="22.01,32.3 34.73,24.96 60.76,40 48.06,47.33 	"/>
	<polygon class="st11" points="60.76,40 60.76,50.04 48.06,57.36 48.06,47.33 	"/>
	<g>
		<path class="st8" d="M52.42,20.74c1.49,0.86,3.74,0.95,5.03,0.21c1.29-0.74,1.13-2.05-0.36-2.91c-1.49-0.86-3.74-0.95-5.03-0.21
			C50.77,18.57,50.93,19.88,52.42,20.74z"/>
		<path class="st8" d="M53.89,28.24c0.86,0.5,2.17,0.55,2.92,0.12c0.75-0.43,0.65-1.19-0.21-1.68c-0.86-0.5-2.17-0.55-2.92-0.12
			C52.93,26.99,53.03,27.75,53.89,28.24z"/>
		<path class="st8" d="M24.99,44.9c0.86,0.5,2.17,0.55,2.92,0.12c0.75-0.43,0.65-1.19-0.21-1.68s-2.17-0.55-2.92-0.12
			C24.03,43.64,24.12,44.4,24.99,44.9z"/>
		<path class="st8" d="M10.15,45.18c1.49,0.86,3.74,0.95,5.03,0.21c1.29-0.74,1.13-2.05-0.36-2.91c-1.49-0.86-3.74-0.95-5.03-0.21
			S8.66,44.32,10.15,45.18z"/>
		<path class="st8" d="M68.06,29.79c1.49,0.86,3.74,0.95,5.03,0.21c1.29-0.74,1.13-2.05-0.36-2.91c-1.49-0.86-3.74-0.95-5.03-0.21
			C66.41,27.62,66.57,28.93,68.06,29.79z"/>
		<path class="st8" d="M25.71,54.23c1.49,0.86,3.74,0.95,5.03,0.21c1.29-0.74,1.13-2.05-0.36-2.91c-1.49-0.86-3.74-0.95-5.03-0.21
			C24.06,52.07,24.22,53.37,25.71,54.23z"/>
	</g>
	<g>
		<polygon class="st12" points="55.24,40.28 34.15,28.11 31.9,29.41 52.99,41.6 		"/>
		<polygon class="st12" points="48.2,41.48 32.09,32.18 29.85,33.48 45.96,42.76 		"/>
	</g>
</g>
</svg>
