<?xml version="1.0" encoding="utf-8"?>
<!-- Generator: Adobe Illustrator 25.3.1, SVG Export Plug-In . SVG Version: 6.00 Build 0)  -->
<svg version="1.1" id="Layer_1" xmlns="http://www.w3.org/2000/svg" xmlns:xlink="http://www.w3.org/1999/xlink" x="0px" y="0px"
	 viewBox="0 0 41.4 30.26" style="enable-background:new 0 0 41.4 30.26;" xml:space="preserve">
<style type="text/css">
	.st0{fill:#00AC65;}
</style>
<g>
	<g>
		<path class="st0" d="M22.31,29.22h-2.58c-0.87,0-1.61-0.65-1.71-1.52l-0.28-2.16c-0.55-0.18-1.08-0.4-1.58-0.66l-1.72,1.34
			c-0.7,0.54-1.68,0.48-2.29-0.15l-1.81-1.81c-0.62-0.6-0.68-1.58-0.14-2.28l1.34-1.72c-0.26-0.5-0.48-1.03-0.66-1.58L8.71,18.4
			c-0.86-0.11-1.52-0.84-1.52-1.71v-2.58c0-0.87,0.65-1.61,1.52-1.71l2.16-0.28c0.18-0.55,0.4-1.08,0.66-1.58l-1.34-1.72
			c-0.54-0.7-0.48-1.68,0.15-2.29l1.81-1.81c0.6-0.62,1.58-0.68,2.28-0.14l1.72,1.34c0.5-0.26,1.03-0.48,1.58-0.66l0.28-2.17
			c0.1-0.86,0.84-1.52,1.71-1.52h2.58c0.87,0,1.61,0.65,1.71,1.52l0.28,2.16c0.55,0.18,1.08,0.4,1.58,0.66l1.72-1.34
			c0.7-0.54,1.68-0.48,2.29,0.15l1.81,1.81c0.62,0.6,0.68,1.58,0.14,2.28l-1.34,1.72c0.26,0.5,0.48,1.03,0.66,1.58l2.17,0.28
			c0.86,0.1,1.52,0.84,1.52,1.71v2.58c0,0.87-0.65,1.61-1.52,1.71l-2.16,0.28c-0.18,0.55-0.4,1.08-0.66,1.58l1.34,1.72
			c0.54,0.7,0.48,1.68-0.15,2.29l-1.81,1.81c-0.6,0.62-1.58,0.68-2.28,0.14l-1.72-1.34c-0.5,0.26-1.03,0.48-1.58,0.66l-0.28,2.17
			C23.91,28.57,23.18,29.22,22.31,29.22L22.31,29.22z M16.1,23.62c0.1,0,0.19,0.02,0.28,0.07c0.63,0.35,1.32,0.64,2.04,0.85
			c0.22,0.06,0.38,0.25,0.41,0.48l0.32,2.53c0.03,0.29,0.28,0.51,0.57,0.51h2.58c0.28,0,0.53-0.22,0.57-0.51l0.32-2.54
			c0.03-0.23,0.19-0.42,0.41-0.48c0.72-0.21,1.41-0.49,2.04-0.85c0.2-0.11,0.45-0.09,0.63,0.05l2.02,1.57
			c0.23,0.18,0.56,0.16,0.75-0.04l1.83-1.83c0.21-0.2,0.22-0.53,0.04-0.76l-1.57-2.02c-0.14-0.18-0.16-0.43-0.05-0.63
			c0.35-0.63,0.64-1.32,0.85-2.04c0.06-0.22,0.25-0.38,0.48-0.41l2.53-0.32c0.29-0.04,0.51-0.29,0.51-0.57v-2.58
			c0-0.28-0.22-0.53-0.51-0.57l-2.54-0.32c-0.23-0.03-0.42-0.19-0.48-0.41c-0.21-0.72-0.49-1.41-0.85-2.04
			c-0.11-0.2-0.09-0.45,0.05-0.63l1.57-2.02c0.18-0.23,0.16-0.56-0.04-0.75l-1.83-1.83c-0.2-0.21-0.53-0.23-0.76-0.04l-2.02,1.57
			c-0.18,0.14-0.43,0.16-0.63,0.05c-0.63-0.35-1.32-0.64-2.04-0.85C23.39,6.19,23.23,6,23.2,5.77l-0.32-2.53
			c-0.04-0.29-0.29-0.51-0.57-0.51h-2.58c-0.28,0-0.53,0.22-0.57,0.51l-0.32,2.54C18.81,6,18.64,6.19,18.42,6.25
			c-0.72,0.21-1.41,0.49-2.04,0.85c-0.2,0.11-0.45,0.09-0.63-0.05l-2.02-1.57c-0.23-0.18-0.56-0.16-0.75,0.04l-1.83,1.83
			c-0.21,0.2-0.22,0.53-0.04,0.76l1.57,2.02c0.14,0.18,0.16,0.43,0.05,0.63c-0.36,0.63-0.64,1.32-0.85,2.04
			c-0.06,0.22-0.25,0.38-0.48,0.41l-2.53,0.32c-0.29,0.03-0.51,0.28-0.51,0.57v2.58c0,0.28,0.22,0.53,0.51,0.57l2.54,0.32
			c0.23,0.03,0.42,0.19,0.48,0.41c0.21,0.72,0.49,1.41,0.85,2.04c0.11,0.2,0.09,0.45-0.05,0.63l-1.57,2.02
			c-0.18,0.23-0.16,0.56,0.04,0.75l1.83,1.83c0.2,0.21,0.53,0.22,0.76,0.04l2.02-1.57C15.85,23.67,15.97,23.62,16.1,23.62
			L16.1,23.62z"/>
	</g>
	<g>
		<path class="st0" d="M21.02,21.16c-3.18,0-5.76-2.58-5.76-5.76s2.58-5.76,5.76-5.76s5.76,2.58,5.76,5.76S24.19,21.16,21.02,21.16z
			 M21.02,10.79c-2.54,0-4.61,2.07-4.61,4.61s2.07,4.61,4.61,4.61s4.61-2.07,4.61-4.61S23.56,10.79,21.02,10.79z"/>
	</g>
</g>
</svg>
