<?xml version="1.0" encoding="utf-8"?>
<!-- Generator: Adobe Illustrator 25.3.1, SVG Export Plug-In . SVG Version: 6.00 Build 0)  -->
<svg version="1.1" id="Layer_1" xmlns="http://www.w3.org/2000/svg" xmlns:xlink="http://www.w3.org/1999/xlink" x="0px" y="0px"
	 viewBox="0 0 41.4 30.26" style="enable-background:new 0 0 41.4 30.26;" xml:space="preserve">
<style type="text/css">
	.st0{fill:#00AC65;}
</style>
<g>
	<g>
		<g>
			<path class="st0" d="M8.18,13.41c-0.6,0-1.09-0.49-1.09-1.09c0-0.6,0.49-1.09,1.09-1.09l23.46-0.07l-7.44-7.53
				c-0.42-0.43-0.42-1.12,0.01-1.54c0.43-0.42,1.12-0.42,1.54,0.01l9.27,9.38c0.31,0.31,0.4,0.78,0.23,1.19
				c-0.17,0.41-0.56,0.67-1,0.67L8.18,13.41C8.18,13.41,8.18,13.41,8.18,13.41z"/>
		</g>
		<g>
			<path class="st0" d="M17.07,29.13c-0.28,0-0.56-0.11-0.78-0.32l-9.27-9.38c-0.31-0.31-0.4-0.78-0.23-1.19
				c0.17-0.41,0.56-0.67,1-0.67l26.06-0.07c0,0,0,0,0,0c0.6,0,1.09,0.49,1.09,1.09c0,0.6-0.49,1.09-1.09,1.09L10.4,19.74l7.44,7.53
				c0.42,0.43,0.42,1.12-0.01,1.54C17.62,29.02,17.34,29.13,17.07,29.13z"/>
		</g>
	</g>
</g>
</svg>
